<?xml version="1.0" encoding="utf-8"?>
<!-- Generator: Adobe Illustrator 19.0.0, SVG Export Plug-In . SVG Version: 6.00 Build 0)  -->
<svg version="1.1"
	 id="svg2" xmlns:svg="http://www.w3.org/2000/svg" xmlns:rdf="http://www.w3.org/1999/02/22-rdf-syntax-ns#" xmlns:cc="http://creativecommons.org/ns#" xmlns:dc="http://purl.org/dc/elements/1.1/"
	 xmlns="http://www.w3.org/2000/svg" xmlns:xlink="http://www.w3.org/1999/xlink" x="0px" y="0px" viewBox="48 63.3 161 157.1"
	 style="enable-background:new 48 63.3 161 157.1;" xml:space="preserve">
<style type="text/css">
	.st0{fill:#1B1817;}
</style>
<g id="g10" transform="matrix(1.3333333,0,0,-1.3333333,0,666.65333)">
	<g id="g12" transform="scale(0.1)">
		<path id="path18" class="st0" d="M963.9,4524.8c-333.5,0-603.9-270.4-603.9-603.9c0-266.8,173-493.2,413-573
			c30.2-5.6,41.3,13.1,41.3,29.1c0,14.4-0.6,62-0.8,112.4c-168-36.5-203.5,71.3-203.5,71.3c-27.5,69.8-67.1,88.4-67.1,88.4
			c-54.8,37.5,4.1,36.7,4.1,36.7c60.6-4.3,92.6-62.2,92.6-62.2c53.9-92.3,141.3-65.6,175.7-50.2c5.4,39,21.1,65.7,38.3,80.8
			c-134.1,15.3-275.1,67.1-275.1,298.4c0,65.9,23.6,119.8,62.2,162.1c-6.3,15.2-26.9,76.6,5.9,159.8c0,0,50.7,16.2,166.1-61.9
			c48.2,13.4,99.8,20.1,151.1,20.3c51.3-0.2,103-6.9,151.3-20.3c115.3,78.1,165.9,61.9,165.9,61.9c32.9-83.2,12.2-144.6,5.9-159.8
			c38.7-42.3,62.1-96.2,62.1-162.1c0-231.9-141.3-283-275.7-298c21.7-18.7,41-55.5,41-111.8c0-80.8-0.7-145.8-0.7-165.7
			c0-16.1,10.9-34.9,41.5-29c239.8,79.9,412.6,306.2,412.6,572.9C1567.7,4254.4,1297.4,4524.8,963.9,4524.8"/>
	</g>
</g>
</svg>
